<mxfile host="app.diagrams.net" modified="2023-01-09T19:32:53.678Z" agent="5.0 (Macintosh; Intel Mac OS X 10_14_1) AppleWebKit/537.36 (KHTML, like Gecko) Chrome/108.0.0.0 Safari/537.36" etag="ccoh_pIcRzMVaF4TpSpe" version="20.8.3" type="github" pages="2">
  <diagram id="xLSGCzur9zV1VgXNIwuC" name="Page-1">
    <mxGraphModel dx="664" dy="359" grid="1" gridSize="10" guides="1" tooltips="1" connect="1" arrows="1" fold="1" page="1" pageScale="1" pageWidth="827" pageHeight="1169" math="0" shadow="0">
      <root>
        <mxCell id="0" />
        <mxCell id="1" parent="0" />
        <mxCell id="WM6Nzwi_wW7RPnbso1bx-8" value="" style="rounded=0;whiteSpace=wrap;html=1;" parent="1" vertex="1">
          <mxGeometry x="140" y="160" width="80" height="80" as="geometry" />
        </mxCell>
        <mxCell id="WM6Nzwi_wW7RPnbso1bx-1" value="" style="rounded=0;whiteSpace=wrap;html=1;" parent="1" vertex="1">
          <mxGeometry x="320" y="160" width="80" height="80" as="geometry" />
        </mxCell>
        <mxCell id="WM6Nzwi_wW7RPnbso1bx-2" value="Social Server" style="text;html=1;strokeColor=none;fillColor=none;align=center;verticalAlign=middle;whiteSpace=wrap;rounded=0;" parent="1" vertex="1">
          <mxGeometry x="330" y="185" width="60" height="30" as="geometry" />
        </mxCell>
        <mxCell id="WM6Nzwi_wW7RPnbso1bx-4" value="" style="rounded=0;whiteSpace=wrap;html=1;" parent="1" vertex="1">
          <mxGeometry x="500" y="160" width="80" height="80" as="geometry" />
        </mxCell>
        <mxCell id="WM6Nzwi_wW7RPnbso1bx-5" value="CCS" style="text;html=1;strokeColor=none;fillColor=none;align=center;verticalAlign=middle;whiteSpace=wrap;rounded=0;" parent="1" vertex="1">
          <mxGeometry x="510" y="185" width="60" height="30" as="geometry" />
        </mxCell>
        <mxCell id="WM6Nzwi_wW7RPnbso1bx-7" value="Client" style="text;html=1;strokeColor=none;fillColor=none;align=center;verticalAlign=middle;whiteSpace=wrap;rounded=0;" parent="1" vertex="1">
          <mxGeometry x="150" y="185" width="60" height="30" as="geometry" />
        </mxCell>
        <mxCell id="WM6Nzwi_wW7RPnbso1bx-9" value="" style="rounded=0;whiteSpace=wrap;html=1;" parent="1" vertex="1">
          <mxGeometry x="320" y="80" width="80" height="40" as="geometry" />
        </mxCell>
        <mxCell id="WM6Nzwi_wW7RPnbso1bx-10" value="" style="rounded=0;whiteSpace=wrap;html=1;" parent="1" vertex="1">
          <mxGeometry x="500" y="80" width="80" height="40" as="geometry" />
        </mxCell>
        <mxCell id="WM6Nzwi_wW7RPnbso1bx-11" value="Social DB" style="text;html=1;strokeColor=none;fillColor=none;align=center;verticalAlign=middle;whiteSpace=wrap;rounded=0;" parent="1" vertex="1">
          <mxGeometry x="330" y="85" width="60" height="30" as="geometry" />
        </mxCell>
        <mxCell id="WM6Nzwi_wW7RPnbso1bx-12" value="CCS DB" style="text;html=1;strokeColor=none;fillColor=none;align=center;verticalAlign=middle;whiteSpace=wrap;rounded=0;" parent="1" vertex="1">
          <mxGeometry x="510" y="85" width="60" height="30" as="geometry" />
        </mxCell>
        <mxCell id="WM6Nzwi_wW7RPnbso1bx-13" value="" style="endArrow=classic;html=1;rounded=0;exitX=1.008;exitY=0.371;exitDx=0;exitDy=0;entryX=0;entryY=0.25;entryDx=0;entryDy=0;exitPerimeter=0;" parent="1" source="WM6Nzwi_wW7RPnbso1bx-8" edge="1">
          <mxGeometry width="50" height="50" relative="1" as="geometry">
            <mxPoint x="240" y="190.00000000000006" as="sourcePoint" />
            <mxPoint x="320" y="190.00000000000006" as="targetPoint" />
          </mxGeometry>
        </mxCell>
        <mxCell id="WM6Nzwi_wW7RPnbso1bx-14" value="" style="endArrow=classic;html=1;rounded=0;exitX=0.996;exitY=0.119;exitDx=0;exitDy=0;exitPerimeter=0;entryX=0;entryY=0.375;entryDx=0;entryDy=0;entryPerimeter=0;" parent="1" target="WM6Nzwi_wW7RPnbso1bx-4" edge="1">
          <mxGeometry width="50" height="50" relative="1" as="geometry">
            <mxPoint x="400" y="189.99999999999997" as="sourcePoint" />
            <mxPoint x="480" y="190" as="targetPoint" />
          </mxGeometry>
        </mxCell>
        <mxCell id="WM6Nzwi_wW7RPnbso1bx-16" value="" style="endArrow=classic;html=1;rounded=0;exitX=0;exitY=0.75;exitDx=0;exitDy=0;entryX=1;entryY=0.5;entryDx=0;entryDy=0;" parent="1" target="WM6Nzwi_wW7RPnbso1bx-8" edge="1">
          <mxGeometry width="50" height="50" relative="1" as="geometry">
            <mxPoint x="320" y="199.84000000000006" as="sourcePoint" />
            <mxPoint x="240" y="199.84000000000006" as="targetPoint" />
          </mxGeometry>
        </mxCell>
        <mxCell id="WM6Nzwi_wW7RPnbso1bx-18" value="MSG_UP&lt;br&gt;CMD_UP&lt;br&gt;OP_FR_USR" style="text;html=1;strokeColor=none;fillColor=none;align=center;verticalAlign=middle;whiteSpace=wrap;rounded=0;" parent="1" vertex="1">
          <mxGeometry x="240" y="150" width="60" height="30" as="geometry" />
        </mxCell>
        <mxCell id="WM6Nzwi_wW7RPnbso1bx-19" value="MSG_TO_CCS&lt;br&gt;CMD_TO_CCS" style="text;html=1;strokeColor=none;fillColor=none;align=center;verticalAlign=middle;whiteSpace=wrap;rounded=0;" parent="1" vertex="1">
          <mxGeometry x="420" y="155" width="60" height="30" as="geometry" />
        </mxCell>
        <mxCell id="WM6Nzwi_wW7RPnbso1bx-20" value="" style="endArrow=classic;html=1;rounded=0;exitX=0;exitY=0.5;exitDx=0;exitDy=0;entryX=1;entryY=0.75;entryDx=0;entryDy=0;" parent="1" source="WM6Nzwi_wW7RPnbso1bx-4" edge="1">
          <mxGeometry width="50" height="50" relative="1" as="geometry">
            <mxPoint x="480" y="199.74000000000004" as="sourcePoint" />
            <mxPoint x="400" y="199.74000000000004" as="targetPoint" />
          </mxGeometry>
        </mxCell>
        <mxCell id="WM6Nzwi_wW7RPnbso1bx-21" value="MSG_FR_CCS&lt;br&gt;CMD_FR_CCS&lt;br&gt;OP_FR_CCS" style="text;html=1;strokeColor=none;fillColor=none;align=center;verticalAlign=middle;whiteSpace=wrap;rounded=0;" parent="1" vertex="1">
          <mxGeometry x="420" y="210" width="60" height="30" as="geometry" />
        </mxCell>
        <mxCell id="WM6Nzwi_wW7RPnbso1bx-22" value="MSG_DOWM&lt;br&gt;CMD_DOWN&lt;br&gt;STATUS" style="text;html=1;strokeColor=none;fillColor=none;align=center;verticalAlign=middle;whiteSpace=wrap;rounded=0;" parent="1" vertex="1">
          <mxGeometry x="240" y="210" width="60" height="30" as="geometry" />
        </mxCell>
        <mxCell id="WM6Nzwi_wW7RPnbso1bx-23" value="" style="endArrow=classic;startArrow=classic;html=1;rounded=0;exitX=0.5;exitY=0;exitDx=0;exitDy=0;" parent="1" source="WM6Nzwi_wW7RPnbso1bx-1" edge="1">
          <mxGeometry width="50" height="50" relative="1" as="geometry">
            <mxPoint x="310" y="170" as="sourcePoint" />
            <mxPoint x="360" y="120" as="targetPoint" />
          </mxGeometry>
        </mxCell>
        <mxCell id="WM6Nzwi_wW7RPnbso1bx-24" value="" style="endArrow=classic;startArrow=classic;html=1;rounded=0;exitX=0.5;exitY=0;exitDx=0;exitDy=0;" parent="1" edge="1">
          <mxGeometry width="50" height="50" relative="1" as="geometry">
            <mxPoint x="539.8400000000001" y="160" as="sourcePoint" />
            <mxPoint x="539.8399999999999" y="120" as="targetPoint" />
          </mxGeometry>
        </mxCell>
      </root>
    </mxGraphModel>
  </diagram>
  <diagram id="EnB75UfdHr1kfR1Goqfb" name="Page-2">
    <mxGraphModel dx="544" dy="293" grid="1" gridSize="10" guides="1" tooltips="1" connect="1" arrows="1" fold="1" page="1" pageScale="1" pageWidth="827" pageHeight="1169" math="0" shadow="0">
      <root>
        <mxCell id="0" />
        <mxCell id="1" parent="0" />
        <mxCell id="3tFQkq7LDZaSS1Ro46q_-2" value="" style="rounded=0;whiteSpace=wrap;html=1;" vertex="1" parent="1">
          <mxGeometry x="320" y="160" width="80" height="80" as="geometry" />
        </mxCell>
        <mxCell id="3tFQkq7LDZaSS1Ro46q_-3" value="Social Passive Service" style="text;html=1;strokeColor=none;fillColor=none;align=center;verticalAlign=middle;whiteSpace=wrap;rounded=0;" vertex="1" parent="1">
          <mxGeometry x="330" y="185" width="60" height="30" as="geometry" />
        </mxCell>
        <mxCell id="3tFQkq7LDZaSS1Ro46q_-8" value="" style="rounded=0;whiteSpace=wrap;html=1;" vertex="1" parent="1">
          <mxGeometry x="747" y="205" width="80" height="35" as="geometry" />
        </mxCell>
        <mxCell id="3tFQkq7LDZaSS1Ro46q_-10" value="Goddess CCS DB" style="text;html=1;strokeColor=none;fillColor=none;align=center;verticalAlign=middle;whiteSpace=wrap;rounded=0;" vertex="1" parent="1">
          <mxGeometry x="757" y="207.5" width="60" height="30" as="geometry" />
        </mxCell>
        <mxCell id="3tFQkq7LDZaSS1Ro46q_-19" value="" style="endArrow=classic;startArrow=classic;html=1;rounded=0;exitX=0.5;exitY=0;exitDx=0;exitDy=0;" edge="1" parent="1" source="3tFQkq7LDZaSS1Ro46q_-2">
          <mxGeometry width="50" height="50" relative="1" as="geometry">
            <mxPoint x="310" y="170" as="sourcePoint" />
            <mxPoint x="360" y="120" as="targetPoint" />
          </mxGeometry>
        </mxCell>
        <mxCell id="3tFQkq7LDZaSS1Ro46q_-20" value="" style="endArrow=classic;startArrow=classic;html=1;rounded=0;exitX=0;exitY=0.5;exitDx=0;exitDy=0;entryX=1;entryY=0.5;entryDx=0;entryDy=0;" edge="1" parent="1" source="3tFQkq7LDZaSS1Ro46q_-8" target="cpncOfZp0s5qkVsQqwfB-12">
          <mxGeometry width="50" height="50" relative="1" as="geometry">
            <mxPoint x="720.0000000000001" y="260" as="sourcePoint" />
            <mxPoint x="719.9999999999999" y="220" as="targetPoint" />
          </mxGeometry>
        </mxCell>
        <mxCell id="cpncOfZp0s5qkVsQqwfB-1" value="" style="rounded=0;whiteSpace=wrap;html=1;" vertex="1" parent="1">
          <mxGeometry x="480" y="160" width="80" height="80" as="geometry" />
        </mxCell>
        <mxCell id="cpncOfZp0s5qkVsQqwfB-2" value="Social Active Service" style="text;html=1;strokeColor=none;fillColor=none;align=center;verticalAlign=middle;whiteSpace=wrap;rounded=0;" vertex="1" parent="1">
          <mxGeometry x="490" y="185" width="60" height="30" as="geometry" />
        </mxCell>
        <mxCell id="cpncOfZp0s5qkVsQqwfB-5" value="" style="endArrow=classic;startArrow=classic;html=1;rounded=0;exitX=0.5;exitY=0;exitDx=0;exitDy=0;entryX=0;entryY=0.5;entryDx=0;entryDy=0;" edge="1" parent="1" target="cpncOfZp0s5qkVsQqwfB-1">
          <mxGeometry width="50" height="50" relative="1" as="geometry">
            <mxPoint x="400" y="200" as="sourcePoint" />
            <mxPoint x="400" y="160" as="targetPoint" />
          </mxGeometry>
        </mxCell>
        <mxCell id="cpncOfZp0s5qkVsQqwfB-6" value="Bridge" style="text;html=1;strokeColor=none;fillColor=none;align=center;verticalAlign=middle;whiteSpace=wrap;rounded=0;" vertex="1" parent="1">
          <mxGeometry x="410" y="170" width="60" height="30" as="geometry" />
        </mxCell>
        <mxCell id="cpncOfZp0s5qkVsQqwfB-7" value="" style="endArrow=classic;startArrow=classic;html=1;rounded=0;exitX=0.5;exitY=0;exitDx=0;exitDy=0;entryX=0;entryY=0.5;entryDx=0;entryDy=0;" edge="1" parent="1">
          <mxGeometry width="50" height="50" relative="1" as="geometry">
            <mxPoint x="560" y="177.24" as="sourcePoint" />
            <mxPoint x="640" y="177.24" as="targetPoint" />
          </mxGeometry>
        </mxCell>
        <mxCell id="cpncOfZp0s5qkVsQqwfB-9" value="" style="endArrow=classic;startArrow=classic;html=1;rounded=0;exitX=0.5;exitY=0;exitDx=0;exitDy=0;entryX=0;entryY=0.5;entryDx=0;entryDy=0;" edge="1" parent="1">
          <mxGeometry width="50" height="50" relative="1" as="geometry">
            <mxPoint x="560" y="222.24" as="sourcePoint" />
            <mxPoint x="640" y="222.24" as="targetPoint" />
          </mxGeometry>
        </mxCell>
        <mxCell id="cpncOfZp0s5qkVsQqwfB-10" value="" style="rounded=0;whiteSpace=wrap;html=1;" vertex="1" parent="1">
          <mxGeometry x="640" y="160" width="80" height="35" as="geometry" />
        </mxCell>
        <mxCell id="cpncOfZp0s5qkVsQqwfB-11" value="Default&lt;br&gt;CCS" style="text;html=1;strokeColor=none;fillColor=none;align=center;verticalAlign=middle;whiteSpace=wrap;rounded=0;" vertex="1" parent="1">
          <mxGeometry x="650" y="162.5" width="60" height="30" as="geometry" />
        </mxCell>
        <mxCell id="cpncOfZp0s5qkVsQqwfB-12" value="" style="rounded=0;whiteSpace=wrap;html=1;" vertex="1" parent="1">
          <mxGeometry x="640" y="205" width="80" height="35" as="geometry" />
        </mxCell>
        <mxCell id="cpncOfZp0s5qkVsQqwfB-13" value="Goddess&lt;br&gt;CCS" style="text;html=1;strokeColor=none;fillColor=none;align=center;verticalAlign=middle;whiteSpace=wrap;rounded=0;" vertex="1" parent="1">
          <mxGeometry x="650" y="207.5" width="60" height="30" as="geometry" />
        </mxCell>
        <mxCell id="cpncOfZp0s5qkVsQqwfB-17" value="" style="endArrow=classic;startArrow=classic;html=1;rounded=0;exitX=0.5;exitY=0;exitDx=0;exitDy=0;" edge="1" parent="1">
          <mxGeometry width="50" height="50" relative="1" as="geometry">
            <mxPoint x="679.8400000000001" y="160" as="sourcePoint" />
            <mxPoint x="679.8399999999999" y="120" as="targetPoint" />
          </mxGeometry>
        </mxCell>
        <mxCell id="cpncOfZp0s5qkVsQqwfB-18" value="" style="rounded=0;whiteSpace=wrap;html=1;" vertex="1" parent="1">
          <mxGeometry x="640" y="85" width="80" height="35" as="geometry" />
        </mxCell>
        <mxCell id="cpncOfZp0s5qkVsQqwfB-19" value="Default CCS DB" style="text;html=1;strokeColor=none;fillColor=none;align=center;verticalAlign=middle;whiteSpace=wrap;rounded=0;" vertex="1" parent="1">
          <mxGeometry x="650" y="87.5" width="60" height="30" as="geometry" />
        </mxCell>
        <mxCell id="cpncOfZp0s5qkVsQqwfB-20" value="" style="rounded=0;whiteSpace=wrap;html=1;" vertex="1" parent="1">
          <mxGeometry x="320" y="85" width="80" height="35" as="geometry" />
        </mxCell>
        <mxCell id="cpncOfZp0s5qkVsQqwfB-21" value="Social DB" style="text;html=1;strokeColor=none;fillColor=none;align=center;verticalAlign=middle;whiteSpace=wrap;rounded=0;" vertex="1" parent="1">
          <mxGeometry x="330" y="87.5" width="60" height="30" as="geometry" />
        </mxCell>
        <mxCell id="cpncOfZp0s5qkVsQqwfB-22" value="" style="rounded=0;whiteSpace=wrap;html=1;" vertex="1" parent="1">
          <mxGeometry x="747" y="250" width="80" height="35" as="geometry" />
        </mxCell>
        <mxCell id="cpncOfZp0s5qkVsQqwfB-23" value="God CCS DB" style="text;html=1;strokeColor=none;fillColor=none;align=center;verticalAlign=middle;whiteSpace=wrap;rounded=0;" vertex="1" parent="1">
          <mxGeometry x="757" y="252.5" width="60" height="30" as="geometry" />
        </mxCell>
        <mxCell id="cpncOfZp0s5qkVsQqwfB-24" value="" style="endArrow=classic;startArrow=classic;html=1;rounded=0;exitX=0;exitY=0.5;exitDx=0;exitDy=0;entryX=1;entryY=0.5;entryDx=0;entryDy=0;" edge="1" parent="1" source="cpncOfZp0s5qkVsQqwfB-22" target="cpncOfZp0s5qkVsQqwfB-25">
          <mxGeometry width="50" height="50" relative="1" as="geometry">
            <mxPoint x="720.0000000000001" y="305" as="sourcePoint" />
            <mxPoint x="719.9999999999999" y="265" as="targetPoint" />
          </mxGeometry>
        </mxCell>
        <mxCell id="cpncOfZp0s5qkVsQqwfB-25" value="" style="rounded=0;whiteSpace=wrap;html=1;" vertex="1" parent="1">
          <mxGeometry x="640" y="250" width="80" height="35" as="geometry" />
        </mxCell>
        <mxCell id="cpncOfZp0s5qkVsQqwfB-26" value="God CCS" style="text;html=1;strokeColor=none;fillColor=none;align=center;verticalAlign=middle;whiteSpace=wrap;rounded=0;" vertex="1" parent="1">
          <mxGeometry x="650" y="252.5" width="60" height="30" as="geometry" />
        </mxCell>
        <mxCell id="cpncOfZp0s5qkVsQqwfB-27" value="" style="endArrow=classic;startArrow=classic;html=1;rounded=0;exitX=0.5;exitY=1;exitDx=0;exitDy=0;entryX=0;entryY=0.5;entryDx=0;entryDy=0;" edge="1" parent="1" source="3tFQkq7LDZaSS1Ro46q_-2">
          <mxGeometry width="50" height="50" relative="1" as="geometry">
            <mxPoint x="560" y="267.05" as="sourcePoint" />
            <mxPoint x="640" y="267.05" as="targetPoint" />
            <Array as="points">
              <mxPoint x="360" y="267" />
            </Array>
          </mxGeometry>
        </mxCell>
        <mxCell id="cpncOfZp0s5qkVsQqwfB-28" value="" style="rounded=0;whiteSpace=wrap;html=1;" vertex="1" parent="1">
          <mxGeometry x="160" y="160" width="80" height="35" as="geometry" />
        </mxCell>
        <mxCell id="cpncOfZp0s5qkVsQqwfB-29" value="Human Client" style="text;html=1;strokeColor=none;fillColor=none;align=center;verticalAlign=middle;whiteSpace=wrap;rounded=0;" vertex="1" parent="1">
          <mxGeometry x="170" y="162.5" width="60" height="30" as="geometry" />
        </mxCell>
        <mxCell id="cpncOfZp0s5qkVsQqwfB-30" value="" style="rounded=0;whiteSpace=wrap;html=1;" vertex="1" parent="1">
          <mxGeometry x="160" y="205" width="80" height="35" as="geometry" />
        </mxCell>
        <mxCell id="cpncOfZp0s5qkVsQqwfB-31" value="Bot Client" style="text;html=1;strokeColor=none;fillColor=none;align=center;verticalAlign=middle;whiteSpace=wrap;rounded=0;" vertex="1" parent="1">
          <mxGeometry x="170" y="207.5" width="60" height="30" as="geometry" />
        </mxCell>
        <mxCell id="cpncOfZp0s5qkVsQqwfB-32" value="" style="endArrow=classic;startArrow=classic;html=1;rounded=0;exitX=0.5;exitY=0;exitDx=0;exitDy=0;entryX=0;entryY=0.5;entryDx=0;entryDy=0;" edge="1" parent="1">
          <mxGeometry width="50" height="50" relative="1" as="geometry">
            <mxPoint x="240" y="177.24" as="sourcePoint" />
            <mxPoint x="320" y="177.24" as="targetPoint" />
          </mxGeometry>
        </mxCell>
        <mxCell id="cpncOfZp0s5qkVsQqwfB-33" value="" style="endArrow=classic;startArrow=classic;html=1;rounded=0;exitX=0.5;exitY=0;exitDx=0;exitDy=0;entryX=0;entryY=0.5;entryDx=0;entryDy=0;" edge="1" parent="1">
          <mxGeometry width="50" height="50" relative="1" as="geometry">
            <mxPoint x="240" y="222.24" as="sourcePoint" />
            <mxPoint x="320" y="222.24" as="targetPoint" />
          </mxGeometry>
        </mxCell>
        <mxCell id="xiNQo3fP94_dmZJ7HXll-6" value="" style="endArrow=classic;html=1;rounded=0;fillColor=#f8cecc;strokeColor=#b85450;exitX=1;exitY=0.75;exitDx=0;exitDy=0;entryX=0;entryY=0.362;entryDx=0;entryDy=0;entryPerimeter=0;" edge="1" parent="1">
          <mxGeometry width="50" height="50" relative="1" as="geometry">
            <mxPoint x="240" y="230" as="sourcePoint" />
            <mxPoint x="320" y="230.21000000000004" as="targetPoint" />
          </mxGeometry>
        </mxCell>
        <mxCell id="xiNQo3fP94_dmZJ7HXll-7" value="" style="endArrow=classic;html=1;rounded=0;fillColor=#f8cecc;strokeColor=#b85450;exitX=1;exitY=0.75;exitDx=0;exitDy=0;entryX=0;entryY=0.362;entryDx=0;entryDy=0;entryPerimeter=0;" edge="1" parent="1">
          <mxGeometry width="50" height="50" relative="1" as="geometry">
            <mxPoint x="560" y="185" as="sourcePoint" />
            <mxPoint x="640" y="185.21000000000004" as="targetPoint" />
          </mxGeometry>
        </mxCell>
        <mxCell id="xiNQo3fP94_dmZJ7HXll-8" value="" style="endArrow=classic;html=1;rounded=0;fillColor=#f8cecc;strokeColor=#b85450;exitX=1;exitY=0.75;exitDx=0;exitDy=0;entryX=0;entryY=0.362;entryDx=0;entryDy=0;entryPerimeter=0;" edge="1" parent="1">
          <mxGeometry width="50" height="50" relative="1" as="geometry">
            <mxPoint x="240" y="185" as="sourcePoint" />
            <mxPoint x="320" y="185.21000000000004" as="targetPoint" />
          </mxGeometry>
        </mxCell>
        <mxCell id="xiNQo3fP94_dmZJ7HXll-9" value="" style="endArrow=classic;html=1;rounded=0;fillColor=#f8cecc;strokeColor=#b85450;exitX=1;exitY=0.75;exitDx=0;exitDy=0;entryX=0;entryY=0.362;entryDx=0;entryDy=0;entryPerimeter=0;" edge="1" parent="1">
          <mxGeometry width="50" height="50" relative="1" as="geometry">
            <mxPoint x="560" y="230" as="sourcePoint" />
            <mxPoint x="640" y="230.21000000000004" as="targetPoint" />
          </mxGeometry>
        </mxCell>
        <mxCell id="xiNQo3fP94_dmZJ7HXll-10" value="" style="endArrow=classic;html=1;rounded=0;fillColor=#f8cecc;strokeColor=#b85450;entryX=0.375;entryY=1;entryDx=0;entryDy=0;entryPerimeter=0;exitX=0;exitY=0.75;exitDx=0;exitDy=0;" edge="1" parent="1" source="cpncOfZp0s5qkVsQqwfB-25" target="3tFQkq7LDZaSS1Ro46q_-2">
          <mxGeometry width="50" height="50" relative="1" as="geometry">
            <mxPoint x="640" y="270.5" as="sourcePoint" />
            <mxPoint x="530" y="270" as="targetPoint" />
            <Array as="points">
              <mxPoint x="350" y="276" />
            </Array>
          </mxGeometry>
        </mxCell>
        <mxCell id="xiNQo3fP94_dmZJ7HXll-11" value="" style="endArrow=classic;html=1;rounded=0;fillColor=#f8cecc;strokeColor=#b85450;exitX=0.004;exitY=0.635;exitDx=0;exitDy=0;entryX=0.996;entryY=0.631;entryDx=0;entryDy=0;entryPerimeter=0;exitPerimeter=0;" edge="1" parent="1" source="cpncOfZp0s5qkVsQqwfB-1" target="3tFQkq7LDZaSS1Ro46q_-2">
          <mxGeometry width="50" height="50" relative="1" as="geometry">
            <mxPoint x="430" y="250" as="sourcePoint" />
            <mxPoint x="510" y="250.21000000000004" as="targetPoint" />
          </mxGeometry>
        </mxCell>
        <mxCell id="xiNQo3fP94_dmZJ7HXll-12" value="MSG CMD OP STATUS" style="text;html=1;strokeColor=none;fillColor=none;align=center;verticalAlign=middle;whiteSpace=wrap;rounded=0;" vertex="1" parent="1">
          <mxGeometry x="250" y="185" width="70" height="30" as="geometry" />
        </mxCell>
      </root>
    </mxGraphModel>
  </diagram>
</mxfile>
